<?xml version="1.0" encoding="UTF-8" standalone="no"?>
<!-- Created with Inkscape (http://www.inkscape.org/) -->

<svg
   width="1024"
   height="1024"
   viewBox="0 0 270.93337 270.93337"
   version="1.1"
   id="svg1"
   xml:space="preserve"
   inkscape:version="1.4.2 (ebf0e940d0, 2025-05-08)"
   sodipodi:docname="base.svg"
   inkscape:export-filename="base.png"
   inkscape:export-xdpi="114.71328"
   inkscape:export-ydpi="114.71328"
   xmlns:inkscape="http://www.inkscape.org/namespaces/inkscape"
   xmlns:sodipodi="http://sodipodi.sourceforge.net/DTD/sodipodi-0.dtd"
   xmlns="http://www.w3.org/2000/svg"
   xmlns:svg="http://www.w3.org/2000/svg"
   xmlns:rdf="http://www.w3.org/1999/02/22-rdf-syntax-ns#"
   xmlns:cc="http://creativecommons.org/ns#"
   xmlns:dc="http://purl.org/dc/elements/1.1/"><defs
     id="defs1"><linearGradient
       id="swatch40"
       inkscape:swatch="solid"><stop
         style="stop-color:#6e5954;stop-opacity:1;"
         offset="0"
         id="stop40" /></linearGradient></defs><sodipodi:namedview
     id="base"
     pagecolor="#ffffff"
     bordercolor="#000000"
     borderopacity="0.3"
     inkscape:pageopacity="0.0"
     inkscape:pageshadow="2"
     inkscape:zoom="0.88302785"
     inkscape:cx="527.16344"
     inkscape:cy="529.99461"
     inkscape:document-units="px"
     inkscape:showpageshadow="0"
     inkscape:pagecheckerboard="1"
     inkscape:deskcolor="#d1d1d1"
     showguides="true"
     inkscape:window-width="2256"
     inkscape:window-height="1453"
     inkscape:window-x="0"
     inkscape:window-y="27"
     inkscape:window-maximized="1"
     inkscape:current-layer="svg1" /><metadata
     id="metadata1"><rdf:RDF><cc:Work
         rdf:about=""><dc:format>image/svg+xml</dc:format><dc:type
           rdf:resource="http://purl.org/dc/dcmitype/StillImage" /></cc:Work></rdf:RDF></metadata><path
     style="fill:#993d41;fill-opacity:1;stroke:#45293f;stroke-width:3.96875;stroke-linecap:round;stroke-linejoin:round;stroke-miterlimit:7.2;stroke-dasharray:none;stroke-opacity:1"
     d="m 126.30535,52.784324 c 8.70811,3.591744 16.97446,6.299993 20.7367,0 9.64952,-9.141215 16.66361,-3.319932 22.15056,0 v 29.219897 c -5.9458,-2.696469 -9.45038,-11.251866 -21.20798,0 -4.11131,3.451028 -9.62604,5.26472 -21.20799,0 z"
     id="path50"
     sodipodi:nodetypes="ccccccc" /><path
     style="display:inline;fill:#788a87;fill-opacity:1;stroke:#45293f;stroke-width:3.96875;stroke-linecap:round;stroke-linejoin:bevel;stroke-miterlimit:7.2;stroke-dasharray:none;stroke-opacity:1"
     d="M 126.52864,52.478364 V 149.56368"
     id="path49" /><path
     style="fill:#443846;fill-opacity:1;stroke:#45293f;stroke-width:3.19994;stroke-linecap:round;stroke-linejoin:miter;stroke-miterlimit:7.2;stroke-dasharray:none;stroke-opacity:1"
     d="m 59.752385,142.8771 37.024727,-2.7025 v -10.81004 h 18.418408 v 10.81004 h 11.65244 v -11.19611 h 19.17017 v 11.19611 h 10.5248 v -10.81004 h 17.29073 v 10.81004 l 50.36866,2.7025 v 55.98057 H 59.752385 Z"
     id="path6"
     sodipodi:nodetypes="ccccccccccccccccc" /><rect
     style="fill:#665964;fill-opacity:1;stroke:#45293f;stroke-width:3.19994;stroke-linecap:round;stroke-linejoin:round;stroke-miterlimit:7.2;stroke-dasharray:none;stroke-opacity:1"
     id="rect3"
     width="43.501213"
     height="102.59113"
     x="19.808922"
     y="102.19841"
     ry="0.60215932" /><rect
     style="fill:#665964;fill-opacity:1;stroke:#45293f;stroke-width:3.19994;stroke-linecap:round;stroke-linejoin:round;stroke-miterlimit:7.2;stroke-dasharray:none;stroke-opacity:1"
     id="rect4"
     width="43.501232"
     height="102.59114"
     x="207.14914"
     y="102.19843"
     ry="0.60215944" /><path
     style="fill:#665964;fill-opacity:1;stroke:#45293f;stroke-width:3.19994;stroke-linecap:round;stroke-linejoin:miter;stroke-miterlimit:7.2;stroke-dasharray:none;stroke-opacity:1"
     d="M 11.601448,268.35078 H 259.38516 v -91.88533 l -17.24351,10.22536 H 135.71876 26.336161 l -14.734713,-8.83138 z"
     id="path1"
     sodipodi:nodetypes="cccccccc" /><rect
     style="fill:#443846;fill-opacity:1;stroke:#822532;stroke-width:0;stroke-linecap:round;stroke-linejoin:round;stroke-miterlimit:7.2;stroke-dasharray:none;stroke-opacity:1"
     id="rect9"
     width="15.03542"
     height="86.094246"
     x="13.031349"
     y="180.6346"
     ry="0.59782428" /><rect
     style="fill:#443846;fill-opacity:1;stroke:#822532;stroke-width:0;stroke-linecap:round;stroke-linejoin:round;stroke-miterlimit:7.2;stroke-dasharray:none;stroke-opacity:1"
     id="rect8"
     width="14.659535"
     height="87.252472"
     x="243.37248"
     y="179.5536"
     ry="0.60586679" /><path
     style="fill:#788a87;fill-opacity:1;stroke:#45293f;stroke-width:3.19987127;stroke-linecap:round;stroke-linejoin:miter;stroke-miterlimit:7.2;stroke-dasharray:none;stroke-opacity:1"
     d="m 11.676625,178.31858 v -9.65181 l 16.028625,9.50493 h 213.63742 l 18.34115,-10.87627 v 9.47886 l -16.65368,9.8756 H 26.336161 Z"
     id="path2" /><path
     style="fill:#993d41;fill-opacity:1;stroke:#7a3045;stroke-width:3.19994;stroke-linecap:round;stroke-linejoin:bevel;stroke-miterlimit:7.2;stroke-dasharray:none;stroke-opacity:1"
     d="M 2.1291341,118.94059 C 15.285127,94.231806 34.301031,77.086161 41.597113,44.814477 c 8.822414,29.682841 27.31435,49.674707 40.971525,74.512183 -8.895958,-8.23626 -17.16438,-9.81764 -39.092096,-10.81009 -23.472757,1.72797 -31.328046,3.41859 -41.3474079,10.42402 z"
     id="path4"
     sodipodi:nodetypes="ccccc" /><path
     style="fill:#993d41;fill-opacity:1;stroke:#7a3045;stroke-width:3.19994;stroke-linecap:round;stroke-linejoin:bevel;stroke-miterlimit:7.2;stroke-dasharray:none;stroke-opacity:1"
     d="m 188.4186,118.94059 c 13.15606,-24.708784 32.17208,-41.854429 39.4682,-74.126113 8.82246,29.682841 27.3145,49.674707 40.97175,74.512183 -8.896,-8.23626 -17.16447,-9.81764 -39.09232,-10.81009 -23.47289,1.72797 -31.32822,3.41859 -41.34763,10.42402 z"
     id="path5"
     sodipodi:nodetypes="ccccc" /><path
     style="fill:#993d41;fill-opacity:1;stroke:#7a3045;stroke-width:3.19994;stroke-linecap:round;stroke-linejoin:miter;stroke-miterlimit:7.2;stroke-dasharray:none;stroke-opacity:1"
     d="m 35.185527,200.99507 12.613699,16.50179 12.613701,-16.73098 v 36.21228 L 47.799226,247.54617 35.185527,236.97816 Z"
     id="path7"
     sodipodi:nodetypes="ccccccc" /><path
     style="fill:#993d41;fill-opacity:1;stroke:#7a3045;stroke-width:3.19994;stroke-linecap:round;stroke-linejoin:miter;stroke-miterlimit:7.2;stroke-dasharray:none;stroke-opacity:1"
     d="m 210.95031,200.99507 12.61377,16.50179 12.61378,-16.73098 v 36.21228 l -12.61378,10.56801 -12.61377,-10.56801 z"
     id="path8"
     sodipodi:nodetypes="ccccccc" /><path
     style="fill:#66361f;fill-opacity:1;stroke:#45293f;stroke-width:3.19994;stroke-linecap:square;stroke-linejoin:bevel;stroke-miterlimit:7.2;stroke-dasharray:none;stroke-opacity:1"
     d="M 71.883402,226.56051 H 98.064598"
     id="path31" /><path
     style="fill:#66361f;fill-opacity:1;stroke:#45293f;stroke-width:3.19994;stroke-linecap:square;stroke-linejoin:bevel;stroke-miterlimit:7.2;stroke-dasharray:none;stroke-opacity:1"
     d="M 90.110847,226.22012 V 214.30647"
     id="path32" /><path
     style="fill:#66361f;fill-opacity:1;stroke:#45293f;stroke-width:2.53801;stroke-linecap:square;stroke-linejoin:bevel;stroke-miterlimit:7.2;stroke-dasharray:none;stroke-opacity:1"
     d="m 77.517341,226.63985 v 8.35109"
     id="path33" /><path
     style="fill:none;fill-opacity:0;stroke:#45293f;stroke-width:3.19994;stroke-linecap:square;stroke-linejoin:bevel;stroke-miterlimit:7.2;stroke-dasharray:none;stroke-opacity:1"
     d="m 188.10922,245.00141 v 11.91365 h 18.22743"
     id="path34" /><path
     style="fill:none;fill-opacity:0;stroke:#45293f;stroke-width:3.19994;stroke-linecap:square;stroke-linejoin:bevel;stroke-miterlimit:7.2;stroke-dasharray:none;stroke-opacity:1"
     d="m 178.01034,202.05244 h 20.54731"
     id="path35" /><path
     style="fill:none;fill-opacity:0;stroke:#45293f;stroke-width:3.19994;stroke-linecap:square;stroke-linejoin:bevel;stroke-miterlimit:7.2;stroke-dasharray:none;stroke-opacity:1"
     d="m 184.96991,201.71204 v -7.48857"
     id="path36" /><path
     id="rect36"
     style="fill:#7a3045;fill-opacity:1;stroke:#4f1b2c;stroke-width:3.19994;stroke-linecap:round;stroke-linejoin:bevel;stroke-miterlimit:7.2;stroke-dasharray:none;stroke-opacity:1"
     d="m 136.14619,211.67642 a 21.72293,24.837476 0 0 0 -21.44702,21.01476 c -0.005,0.021 -0.009,0.0425 -0.0123,0.0642 a 21.72293,24.837476 0 0 0 -0.26372,3.75873 21.72293,24.837476 0 0 0 0.2533,3.70205 v 27.39079 c 0,0.39087 0.30634,0.70552 0.68689,0.70552 H 156.929 c 0.38056,0 0.68689,-0.31465 0.68689,-0.70552 v -27.39079 a 21.72293,24.837476 0 0 0 0.2533,-3.70205 21.72293,24.837476 0 0 0 -21.72302,-24.83773 z" /><path
     style="fill:#935140;fill-opacity:1;stroke:#4f1b2c;stroke-width:3.99992;stroke-linecap:round;stroke-linejoin:bevel;stroke-miterlimit:7.2;stroke-dasharray:none;stroke-opacity:1"
     d="m 115.70563,234.69062 h 41.09459"
     id="path40" /><path
     style="fill:#935140;fill-opacity:1;stroke:#4f1b2c;stroke-width:3.99992;stroke-linecap:round;stroke-linejoin:bevel;stroke-miterlimit:7.2;stroke-dasharray:none;stroke-opacity:1"
     d="m 115.70563,252.5273 h 41.09459"
     id="path41" /></svg>
